 <svg width="1920" height="1035" viewBox="0 0 1920 1035" fill="none" xmlns="http://www.w3.org/2000/svg">
<g clip-path="url(#clip0_1_683)">
<rect width="1920" height="1035" fill="url(#paint0_radial_1_683)"/>
<rect x="-8" y="2" width="1924" height="1034" fill="#A50D4C" style="mix-blend-mode:darken"/>
<g style="mix-blend-mode:color-dodge" opacity="0.8">
<path d="M38.4819 -27.9523V2260.77" stroke="#A50D4C" stroke-opacity="0.4" stroke-width="4"/>
<path d="M82.8628 -26.9039V2261.81" stroke="#A50D4C" stroke-opacity="0.4" stroke-width="4"/>
<path d="M126.106 -26.9039V2261.81" stroke="#A50D4C" stroke-opacity="0.4" stroke-width="4"/>
<path d="M169.349 -26.9039V2261.81" stroke="#A50D4C" stroke-opacity="0.4" stroke-width="4"/>
<path d="M212.592 -29V2259.72" stroke="#A50D4C" stroke-opacity="0.4" stroke-width="4"/>
<path d="M256.973 -27.9523V2260.77" stroke="#A50D4C" stroke-opacity="0.4" stroke-width="4"/>
<path d="M300.217 -27.9523V2260.77" stroke="#A50D4C" stroke-opacity="0.4" stroke-width="4"/>
<path d="M343.459 -27.9523V2260.77" stroke="#A50D4C" stroke-opacity="0.4" stroke-width="4"/>
<path d="M385.565 -25.8561V2262.86" stroke="#A50D4C" stroke-opacity="0.4" stroke-width="4"/>
<path d="M429.945 -24.8083V2263.91" stroke="#A50D4C" stroke-opacity="0.4" stroke-width="4"/>
<path d="M473.189 -24.8083V2263.91" stroke="#A50D4C" stroke-opacity="0.4" stroke-width="4"/>
<path d="M516.433 -24.8083V2263.91" stroke="#A50D4C" stroke-opacity="0.4" stroke-width="4"/>
<path d="M559.675 -26.9039V2261.81" stroke="#A50D4C" stroke-opacity="0.4" stroke-width="4"/>
<path d="M604.057 -25.8561V2262.86" stroke="#A50D4C" stroke-opacity="0.4" stroke-width="4"/>
<path d="M647.299 -25.8561V2262.86" stroke="#A50D4C" stroke-opacity="0.4" stroke-width="4"/>
<path d="M690.543 -25.8561V2262.86" stroke="#A50D4C" stroke-opacity="0.4" stroke-width="4"/>
<path d="M733.786 -23.76V2264.96" stroke="#A50D4C" stroke-opacity="0.4" stroke-width="4"/>
<path d="M778.167 -22.7123V2266.01" stroke="#A50D4C" stroke-opacity="0.4" stroke-width="4"/>
<path d="M821.41 -22.7123V2266.01" stroke="#A50D4C" stroke-opacity="0.4" stroke-width="4"/>
<path d="M864.653 -22.7123V2266.01" stroke="#A50D4C" stroke-opacity="0.4" stroke-width="4"/>
<path d="M907.896 -24.8083V2263.91" stroke="#A50D4C" stroke-opacity="0.4" stroke-width="4"/>
<path d="M952.278 -23.76V2264.96" stroke="#A50D4C" stroke-opacity="0.4" stroke-width="4"/>
<path d="M995.521 -23.76V2264.96" stroke="#A50D4C" stroke-opacity="0.4" stroke-width="4"/>
<path d="M1038.76 -23.76V2264.96" stroke="#A50D4C" stroke-opacity="0.4" stroke-width="4"/>
<path d="M1079.73 -23.76V2264.96" stroke="#A50D4C" stroke-opacity="0.4" stroke-width="4"/>
<path d="M1124.11 -22.7123V2266.01" stroke="#A50D4C" stroke-opacity="0.4" stroke-width="4"/>
<path d="M1167.35 -22.7123V2266.01" stroke="#A50D4C" stroke-opacity="0.4" stroke-width="4"/>
<path d="M1210.6 -22.7123V2266.01" stroke="#A50D4C" stroke-opacity="0.4" stroke-width="4"/>
<path d="M1253.84 -24.8083V2263.91" stroke="#A50D4C" stroke-opacity="0.4" stroke-width="4"/>
<path d="M1298.22 -23.76V2264.96" stroke="#A50D4C" stroke-opacity="0.4" stroke-width="4"/>
<path d="M1341.46 -23.76V2264.96" stroke="#A50D4C" stroke-opacity="0.4" stroke-width="4"/>
<path d="M1384.71 -23.76V2264.96" stroke="#A50D4C" stroke-opacity="0.4" stroke-width="4"/>
<path d="M1426.81 -21.6644V2267.05" stroke="#A50D4C" stroke-opacity="0.4" stroke-width="4"/>
<path d="M1471.19 -20.6162V2268.1" stroke="#A50D4C" stroke-opacity="0.4" stroke-width="4"/>
<path d="M1514.44 -20.6162V2268.1" stroke="#A50D4C" stroke-opacity="0.4" stroke-width="4"/>
<path d="M1557.68 -20.6162V2268.1" stroke="#A50D4C" stroke-opacity="0.4" stroke-width="4"/>
<path d="M1600.92 -22.7123V2266.01" stroke="#A50D4C" stroke-opacity="0.4" stroke-width="4"/>
<path d="M1645.3 -21.6644V2267.05" stroke="#A50D4C" stroke-opacity="0.4" stroke-width="4"/>
<path d="M1688.55 -21.6644V2267.05" stroke="#A50D4C" stroke-opacity="0.4" stroke-width="4"/>
<path d="M1731.79 -21.6644V2267.05" stroke="#A50D4C" stroke-opacity="0.4" stroke-width="4"/>
<path d="M1775.03 -19.5684V2269.15" stroke="#A50D4C" stroke-opacity="0.4" stroke-width="4"/>
<path d="M1819.42 -18.5206V2270.2" stroke="#A50D4C" stroke-opacity="0.4" stroke-width="4"/>
<path d="M1862.66 -18.5206V2270.2" stroke="#A50D4C" stroke-opacity="0.4" stroke-width="4"/>
<path d="M1905.9 -18.5206V2270.2" stroke="#A50D4C" stroke-opacity="0.4" stroke-width="4"/>
<path d="M3.20459 -22.7123V2266.01" stroke="#A50D4C" stroke-opacity="0.4" stroke-width="4"/>
<path d="M4350.81 9.15186L-14.7722 -3.25963" stroke="#A50D4C" stroke-opacity="0.4" stroke-width="4"/>
<path d="M4350.68 48.9738L-14.9055 36.5623" stroke="#A50D4C" stroke-opacity="0.4" stroke-width="4"/>
<path d="M4350.55 88.7961L-15.0388 76.3847" stroke="#A50D4C" stroke-opacity="0.4" stroke-width="4"/>
<path d="M4350.42 126.522L-15.1653 114.11" stroke="#A50D4C" stroke-opacity="0.4" stroke-width="4"/>
<path d="M4348.28 167.386L-17.3035 154.974" stroke="#A50D4C" stroke-opacity="0.4" stroke-width="4"/>
<path d="M4348.15 207.208L-17.4344 194.796" stroke="#A50D4C" stroke-opacity="0.4" stroke-width="4"/>
<path d="M4348.02 247.03L-17.5681 234.619" stroke="#A50D4C" stroke-opacity="0.4" stroke-width="4"/>
<path d="M4351.88 286.862L-13.7054 274.451" stroke="#A50D4C" stroke-opacity="0.4" stroke-width="4"/>
<path d="M4349.74 327.727L-15.8416 315.316" stroke="#A50D4C" stroke-opacity="0.4" stroke-width="4"/>
<path d="M4349.61 367.548L-15.9744 355.137" stroke="#A50D4C" stroke-opacity="0.4" stroke-width="4"/>
<path d="M4349.48 407.37L-16.1082 394.959" stroke="#A50D4C" stroke-opacity="0.4" stroke-width="4"/>
<path d="M4345.35 446.133L-20.2332 433.721" stroke="#A50D4C" stroke-opacity="0.4" stroke-width="4"/>
<path d="M4343.21 486.997L-22.3733 474.585" stroke="#A50D4C" stroke-opacity="0.4" stroke-width="4"/>
<path d="M4343.08 526.819L-22.5071 514.408" stroke="#A50D4C" stroke-opacity="0.4" stroke-width="4"/>
<path d="M4342.95 566.641L-22.6399 554.23" stroke="#A50D4C" stroke-opacity="0.4" stroke-width="4"/>
<path d="M4346.81 606.474L-18.7727 594.063" stroke="#A50D4C" stroke-opacity="0.4" stroke-width="4"/>
<path d="M4344.67 647.338L-20.9109 634.927" stroke="#A50D4C" stroke-opacity="0.4" stroke-width="4"/>
<path d="M4344.54 687.16L-21.0447 674.748" stroke="#A50D4C" stroke-opacity="0.4" stroke-width="4"/>
<path d="M4344.41 726.981L-21.1775 714.569" stroke="#A50D4C" stroke-opacity="0.4" stroke-width="4"/>
<path d="M4340.28 766.792L-25.3094 754.381" stroke="#A50D4C" stroke-opacity="0.4" stroke-width="4"/>
<path d="M4338.14 807.657L-27.4456 795.245" stroke="#A50D4C" stroke-opacity="0.4" stroke-width="4"/>
<path d="M4338.01 847.478L-27.5789 835.066" stroke="#A50D4C" stroke-opacity="0.4" stroke-width="4"/>
<path d="M4337.87 887.3L-27.7122 874.888" stroke="#A50D4C" stroke-opacity="0.4" stroke-width="4"/>
<path d="M4341.74 927.133L-23.8494 914.721" stroke="#A50D4C" stroke-opacity="0.4" stroke-width="4"/>
<path d="M4339.6 967.997L-25.9856 955.585" stroke="#A50D4C" stroke-opacity="0.4" stroke-width="4"/>
<path d="M4339.47 1007.82L-26.1184 995.407" stroke="#A50D4C" stroke-opacity="0.4" stroke-width="4"/>
<path d="M4339.33 1047.64L-26.2522 1035.23" stroke="#A50D4C" stroke-opacity="0.4" stroke-width="4"/>
<path d="M4335.33 1048.68L-30.2503 1036.27" stroke="#A50D4C" stroke-opacity="0.4" stroke-width="4"/>
</g>
</g>
<defs>
<radialGradient id="paint0_radial_1_683" cx="0" cy="0" r="1" gradientUnits="userSpaceOnUse" gradientTransform="translate(960 864.417) rotate(-90) scale(967.917 1010)">
<stop stop-color="#C51C62"/>
<stop offset="1" stop-color="#0C043D"/>
</radialGradient>
<clipPath id="clip0_1_683">
<rect width="1920" height="1035" fill="white"/>
</clipPath>
</defs>
</svg>
