<svg width="94" height="94" viewBox="0 0 94 94" fill="none" xmlns="http://www.w3.org/2000/svg">
<path d="M47 45.0418C44.4031 45.0418 41.9125 44.0102 40.0763 42.1739C38.24 40.3376 37.2083 37.8471 37.2083 35.2502C37.2083 32.6533 38.24 30.1627 40.0763 28.3264C41.9125 26.4901 44.4031 25.4585 47 25.4585C49.5969 25.4585 52.0875 26.4901 53.9238 28.3264C55.7601 30.1627 56.7917 32.6533 56.7917 35.2502C56.7917 36.536 56.5384 37.8093 56.0463 38.9973C55.5543 40.1853 54.833 41.2647 53.9238 42.1739C53.0145 43.0832 51.9351 43.8044 50.7471 44.2965C49.5591 44.7886 48.2859 45.0418 47 45.0418ZM47 7.8335C39.7287 7.8335 32.7551 10.722 27.6135 15.8637C22.4719 21.0053 19.5833 27.9788 19.5833 35.2502C19.5833 55.8127 47 86.1668 47 86.1668C47 86.1668 74.4167 55.8127 74.4167 35.2502C74.4167 27.9788 71.5281 21.0053 66.3865 15.8637C61.2449 10.722 54.2714 7.8335 47 7.8335Z" fill="#F8F8F8"/>
</svg>
