<svg width="92" height="92" viewBox="0 0 92 92" fill="none" xmlns="http://www.w3.org/2000/svg">
<path d="M46 8.625C38.6079 8.625 31.3819 10.817 25.2356 14.9238C19.0893 19.0306 14.2988 24.8678 11.47 31.6972C8.64119 38.5266 7.90104 46.0415 9.34317 53.2915C10.7853 60.5415 14.3449 67.2011 19.5719 72.4281C24.7989 77.6551 31.4585 81.2147 38.7085 82.6569C45.9586 84.099 53.4734 83.3588 60.3028 80.53C67.1322 77.7012 72.9694 72.9107 77.0762 66.7644C81.183 60.6182 83.375 53.3921 83.375 46C83.3646 36.0907 79.4235 26.5903 72.4166 19.5834C65.4097 12.5765 55.9093 8.63546 46 8.625ZM66.125 48.875H46C45.2375 48.875 44.5063 48.5721 43.9671 48.0329C43.4279 47.4938 43.125 46.7625 43.125 46V25.875C43.125 25.1125 43.4279 24.3812 43.9671 23.8421C44.5063 23.3029 45.2375 23 46 23C46.7625 23 47.4938 23.3029 48.033 23.8421C48.5721 24.3812 48.875 25.1125 48.875 25.875V43.125H66.125C66.8875 43.125 67.6188 43.4279 68.158 43.9671C68.6971 44.5062 69 45.2375 69 46C69 46.7625 68.6971 47.4938 68.158 48.0329C67.6188 48.5721 66.8875 48.875 66.125 48.875Z" fill="#F8F8F8"/>
</svg>
