<svg width="70" height="70" viewBox="0 0 70 70" fill="none" xmlns="http://www.w3.org/2000/svg">
<path d="M69.9757 34.9316C69.9757 37.3926 68.1528 39.3203 66.0868 39.3203H62.1979L62.283 61.2227C62.283 61.5918 62.2587 61.9609 62.2222 62.3301V64.5449C62.2222 67.5664 60.0469 70.0137 57.3611 70.0137H55.4167C55.283 70.0137 55.1493 70.0137 55.0156 70C54.8455 70.0137 54.6754 70.0137 54.5052 70.0137L50.5556 70H47.6389C44.9531 70 42.7778 67.5527 42.7778 64.5312V52.5C42.7778 50.0801 41.0399 48.125 38.8889 48.125H31.1111C28.9601 48.125 27.2222 50.0801 27.2222 52.5V64.5312C27.2222 67.5527 25.0469 70 22.3611 70H15.5677C15.3854 70 15.2031 69.9863 15.0208 69.9727C14.875 69.9863 14.7292 70 14.5833 70H12.6389C9.95313 70 7.77778 67.5527 7.77778 64.5312V49.2188C7.77778 49.0957 7.77778 48.959 7.78993 48.8359V39.3066H3.90104C1.71354 39.3066 0.0121536 37.3926 0.0121536 34.918C0.0121536 33.6875 0.376737 32.5938 1.22743 31.6367L32.375 1.09375C33.2257 0.136719 34.1979 0 35.0486 0C35.8993 0 36.8715 0.273438 37.6007 0.957031L68.6389 31.6504C69.6111 32.6074 70.0972 33.7012 69.9757 34.9316Z" fill="#F8F8F8"/>
</svg>
