<svg width="59" height="84" viewBox="0 0 59 84" fill="none" xmlns="http://www.w3.org/2000/svg">
<path d="M29.5 84C28.5167 84 27.6738 83.72 26.9714 83.16C26.2691 82.6 25.7423 81.865 25.3911 80.955C24.0566 77.035 22.3708 73.36 20.3339 69.93C18.3673 66.5 15.5929 62.475 12.0107 57.855C8.42857 53.235 5.51369 48.825 3.26607 44.625C1.08869 40.425 0 35.35 0 29.4C0 21.21 2.84464 14.28 8.53393 8.60999C14.2935 2.87 21.2821 0 29.5 0C37.7179 0 44.6714 2.87 50.3607 8.60999C56.1202 14.28 59 21.21 59 29.4C59 35.77 57.7708 41.09 55.3125 45.36C52.9244 49.56 50.15 53.725 46.9893 57.855C43.1964 62.895 40.3167 67.095 38.35 70.455C36.4536 73.745 34.8732 77.245 33.6089 80.955C33.2577 81.935 32.6958 82.705 31.9232 83.265C31.2208 83.755 30.4131 84 29.5 84ZM29.5 68.985C30.694 66.605 32.0286 64.26 33.5036 61.95C35.0488 59.64 37.2964 56.56 40.2464 52.71C43.2667 48.79 45.725 45.185 47.6214 41.895C49.5881 38.535 50.5714 34.37 50.5714 29.4C50.5714 23.59 48.4994 18.655 44.3554 14.595C40.2816 10.465 35.3298 8.4 29.5 8.4C23.6702 8.4 18.6833 10.465 14.5393 14.595C10.4655 18.655 8.42857 23.59 8.42857 29.4C8.42857 34.37 9.37679 38.535 11.2732 41.895C13.2399 45.185 15.7333 48.79 18.7536 52.71C21.7036 56.56 23.9161 59.64 25.3911 61.95C26.9363 64.26 28.306 66.605 29.5 68.985ZM29.5 39.9C32.45 39.9 34.9435 38.885 36.9804 36.855C39.0173 34.825 40.0357 32.34 40.0357 29.4C40.0357 26.46 39.0173 23.975 36.9804 21.945C34.9435 19.915 32.45 18.9 29.5 18.9C26.55 18.9 24.0565 19.915 22.0196 21.945C19.9827 23.975 18.9643 26.46 18.9643 29.4C18.9643 32.34 19.9827 34.825 22.0196 36.855C24.0565 38.885 26.55 39.9 29.5 39.9Z" fill="#FEF7FF"/>
</svg>
